<?xml version="1.0" ?>
<!-- Uploaded to: SVG Repo, www.svgrepo.com, Generator: SVG Repo Mixer Tools -->
<svg fill="#000000" width="800px" height="800px" viewBox="0 0 32 32" xmlns="http://www.w3.org/2000/svg">
<g data-name="22. Mail" id="_22._Mail">
<path d="M31.55,10.17,27,7.13V3a3,3,0,0,0-3-3H8A3,3,0,0,0,5,3V7.13l-4.55,3A1,1,0,0,0,0,11V31a1,1,0,0,0,1,1H31a1,1,0,0,0,1-1V11A1,1,0,0,0,31.55,10.17ZM2,13.08l3.38,2.7L11.9,21,2,28.92Zm14,7.2L28.15,30H3.85Zm4.1.72,6.52-5.22h0L30,13.08V28.92Zm9.21-9.93L27,12.92V9.54ZM7,3A1,1,0,0,1,8,2H24a1,1,0,0,1,1,1V14.52l-6.5,5.2-1.88-1.5a1,1,0,0,0-1.24,0l-1.88,1.5L7,14.52ZM5,12.92,2.69,11.07,5,9.54Z"/>
<path d="M16,13H14a1,1,0,0,0,0,2h1a1,1,0,0,0,2,0v-.18A3,3,0,0,0,16,9a1,1,0,0,1,0-2h2a1,1,0,0,0,0-2H17a1,1,0,0,0-2,0v.18A3,3,0,0,0,16,11a1,1,0,0,1,0,2Z"/>
</g>
</svg>