<?xml version="1.0" encoding="iso-8859-1"?>
<!-- Uploaded to: SVG Repo, www.svgrepo.com, Generator: SVG Repo Mixer Tools -->
<svg fill="#000000" height="800px" width="800px" version="1.1" id="Layer_1" xmlns="http://www.w3.org/2000/svg" xmlns:xlink="http://www.w3.org/1999/xlink" 
	 viewBox="0 0 512 512" xml:space="preserve">
<g>
	<g>
		<path d="M508.035,199.335l0.002-0.008l-38.793-22.741v-64.406c0-9.136-7.432-16.568-16.568-16.568H331.113l-53.761-31.515
			c-13.17-7.721-29.532-7.721-42.704,0l-53.761,31.515H59.324c-9.136,0-16.568,7.432-16.568,16.568v64.406L3.962,199.328
			l0.002,0.008C1.595,200.728,0,203.297,0,206.244v230.881c0,9.136,7.432,16.568,16.568,16.568h478.864
			c9.136,0,16.568-7.432,16.568-16.568V206.244C512,203.297,510.405,200.728,508.035,199.335z M469.244,195.173l18.887,11.07
			l-18.887,11.073V195.173z M242.755,77.93c8.17-4.789,18.32-4.789,26.488,0l30.165,17.683H212.59L242.755,77.93z M58.789,112.181
			c0-0.294,0.239-0.534,0.534-0.534h393.353c0.295,0,0.534,0.239,0.534,0.534v114.533l-52.373,30.701
			c0.074-14.378,11.79-26.053,26.185-26.053c4.427,0,8.017-3.589,8.017-8.017v-51.307c0-4.427-3.589-8.017-8.017-8.017
			c-14.44,0-26.188-11.748-26.188-26.188c0-4.427-3.589-8.017-8.017-8.017H119.182c-4.427,0-8.017,3.589-8.017,8.017
			c0,14.44-11.748,26.188-26.188,26.188c-4.427,0-8.017,3.589-8.017,8.017v51.307c0,4.427,3.589,8.017,8.017,8.017
			c14.395,0,26.111,11.674,26.185,26.052l-52.373-30.699V112.181z M156.066,283.738l-30.998-18.171h261.864l-30.998,18.171H156.066z
			 M328.583,299.773l-28.822,16.895l-22.409-13.137c-2.702-1.584-5.542-2.824-8.458-3.758H328.583z M243.106,299.773
			c-2.916,0.934-5.756,2.174-8.458,3.758l-22.409,13.137l-28.822-16.895H243.106z M196.676,197.692
			c0,20.771,8.205,39.381,21.09,51.841h-91.333c-3.255-16.863-16.579-30.187-33.441-33.441v-36.801
			c16.863-3.255,30.187-16.578,33.441-33.441h91.333C204.881,158.312,196.676,176.923,196.676,197.692z M256,145.851
			c23.871,0,43.29,23.256,43.29,51.841c0,28.585-19.42,51.841-43.29,51.841s-43.29-23.256-43.29-51.841
			C212.71,169.107,232.129,145.851,256,145.851z M385.566,249.535h-91.333c12.885-12.461,21.09-31.072,21.09-51.842
			c0-20.771-8.205-39.38-21.09-51.841h91.333c3.255,16.863,16.579,30.187,33.441,33.441v36.801
			C402.145,219.348,388.821,232.672,385.566,249.535z M42.756,195.172v22.143l-18.886-11.072L42.756,195.172z M16.033,431.684
			V220.237L196.386,325.96L16.033,431.684z M37.545,437.659l205.21-120.297c8.17-4.789,18.32-4.789,26.488,0l205.213,120.297H37.545
			z M495.967,431.684L315.614,325.96l180.352-105.723V431.684z"/>
	</g>
</g>
<g>
	<g>
		<path d="M84.977,129.775c-4.427,0-8.059,3.632-8.059,8.06c0,4.427,3.632,8.059,8.059,8.059s8.059-3.632,8.059-8.059
			C93.036,133.407,89.404,129.775,84.977,129.775z"/>
	</g>
</g>
<g>
	<g>
		<path d="M427.066,129.775c-4.427,0-8.059,3.632-8.059,8.06c0,4.427,3.632,8.059,8.059,8.059s8.059-3.632,8.059-8.059
			C435.125,133.407,431.493,129.775,427.066,129.775z"/>
	</g>
</g>
<g>
	<g>
		<path d="M153.386,172.574c-13.851,0-25.119,11.268-25.119,25.119c0,13.851,11.268,25.119,25.119,25.119
			s25.119-11.268,25.119-25.119C178.505,183.842,167.237,172.574,153.386,172.574z M153.386,206.778
			c-5.01,0-9.086-4.076-9.086-9.086c0-5.01,4.076-9.086,9.086-9.086s9.086,4.076,9.086,9.086
			C162.472,202.702,158.396,206.778,153.386,206.778z"/>
	</g>
</g>
<g>
	<g>
		<path d="M358.614,172.574c-13.851,0-25.119,11.268-25.119,25.119c0,13.851,11.268,25.119,25.119,25.119
			c13.851,0,25.119-11.268,25.119-25.119C383.733,183.842,372.465,172.574,358.614,172.574z M358.614,206.778
			c-5.01,0-9.086-4.076-9.086-9.086c0-5.01,4.076-9.086,9.086-9.086c5.01,0,9.086,4.076,9.086,9.086
			C367.699,202.702,363.624,206.778,358.614,206.778z"/>
	</g>
</g>
<g>
	<g>
		<path d="M258.39,190.039c-11.244-3.513-11.471-5.356-11.477-6.696c0.397-0.948,3.651-3.289,9.086-3.289
			c5.524,0,8.749,2.383,9.102,3.331c1.543,4.151,6.157,6.264,10.308,4.72c4.149-1.543,6.263-6.158,4.72-10.308
			c-2.31-6.211-8.39-10.883-16.112-12.809v-1.502c0-4.427-3.589-8.017-8.017-8.017s-8.017,3.589-8.017,8.017v1.504
			c-10.037,2.509-17.102,9.639-17.102,18.271c0,14.982,14.785,19.601,22.728,22.083c11.244,3.513,11.471,5.356,11.477,6.696
			c-0.397,0.948-3.651,3.289-9.086,3.289c-5.524,0-8.749-2.383-9.102-3.331c-1.543-4.149-6.157-6.263-10.308-4.72
			c-4.149,1.543-6.263,6.159-4.72,10.308c2.31,6.211,8.39,10.882,16.112,12.807v1.502c0,4.427,3.589,8.017,8.017,8.017
			s8.017-3.589,8.017-8.017v-1.504c10.037-2.509,17.102-9.639,17.102-18.271C281.118,197.142,266.333,192.522,258.39,190.039z"/>
	</g>
</g>
</svg>