<?xml version="1.0" standalone="no"?>
<!DOCTYPE svg PUBLIC "-//W3C//DTD SVG 20010904//EN"
 "http://www.w3.org/TR/2001/REC-SVG-20010904/DTD/svg10.dtd">
<svg version="1.0" xmlns="http://www.w3.org/2000/svg"
 width="759.000000pt" height="1280.000000pt" viewBox="0 0 759.000000 1280.000000"
 preserveAspectRatio="xMidYMid meet">
<metadata>
Created by potrace 1.15, written by Peter Selinger 2001-2017
</metadata>
<g transform="translate(0.000000,1280.000000) scale(0.100000,-0.100000)"
fill="#000000" stroke="none">
<path d="M3895 12786 c-221 -51 -335 -205 -335 -455 0 -116 18 -201 86 -419
l55 -174 -16 -141 c-26 -233 -64 -499 -80 -560 -18 -70 -18 -67 -2 -67 7 0 34
21 59 48 l47 47 7 283 7 284 31 -6 c142 -30 293 -29 369 1 35 14 37 18 37 58
0 61 20 65 117 22 98 -43 117 -47 236 -51 l97 -3 -37 46 c-20 25 -59 72 -86
104 -27 32 -48 59 -46 61 4 4 70 -6 274 -43 141 -26 207 -22 279 17 96 52 125
132 105 282 -24 170 -154 378 -285 455 -113 66 -343 152 -514 191 -133 31
-319 40 -405 20z"/>
<path d="M4745 11017 c-89 -24 -135 -57 -169 -123 -23 -47 -27 -89 -29 -314
-2 -187 -4 -208 -22 -240 -25 -41 -72 -62 -192 -83 -211 -38 -316 -143 -358
-357 -28 -145 -42 -186 -76 -214 -17 -14 -37 -26 -45 -26 -29 0 -140 85 -229
174 -128 129 -178 223 -211 395 -18 93 -19 328 -3 514 12 130 11 141 -5 153
-27 19 -146 26 -281 16 -106 -7 -128 -12 -190 -42 -123 -58 -210 -169 -279
-354 -15 -38 -25 -71 -23 -72 9 -9 187 -118 219 -135 51 -26 152 -49 219 -49
l57 0 -25 -82 c-31 -106 -39 -218 -20 -278 8 -25 143 -241 306 -490 310 -471
326 -498 421 -719 297 -695 373 -1359 225 -1951 -25 -97 -52 -161 -310 -730
-215 -475 -318 -739 -364 -931 -6 -25 -18 -109 -26 -185 -112 -981 -397 -1617
-1110 -2474 -431 -519 -943 -1004 -1342 -1272 -283 -189 -564 -319 -806 -373
-43 -9 -76 -22 -74 -28 1 -5 117 -49 257 -98 242 -83 507 -174 991 -342 210
-73 350 -109 624 -161 776 -150 1435 -182 2036 -101 159 21 171 24 274 74 59
28 163 83 230 121 170 97 318 166 411 192 71 19 98 21 259 17 287 -6 484 -3
562 10 97 17 175 57 253 128 l64 60 -12 68 c-17 89 -67 238 -154 455 -85 211
-118 306 -118 336 0 31 54 190 152 449 90 238 126 361 162 555 44 246 51 336
51 690 -1 426 -15 567 -136 1385 -28 187 -48 353 -45 370 3 16 35 212 70 435
47 293 81 473 125 652 74 304 116 508 135 658 54 418 12 764 -133 1100 -93
216 -207 339 -666 718 -170 141 -344 290 -385 332 -271 270 -420 775 -355
1204 20 133 38 159 263 387 100 102 195 203 209 224 76 112 55 243 -49 296
-108 55 -246 78 -333 56z"/>
<path d="M1225 10624 c-108 -19 -535 -165 -535 -183 0 -10 9 -12 33 -7 261 49
356 62 344 47 -7 -9 -68 -77 -135 -152 -107 -120 -127 -149 -102 -149 3 0 66
51 140 114 74 63 136 113 138 111 2 -1 -38 -85 -88 -185 -126 -252 -108 -256
74 -15 22 28 20 11 -13 -132 -20 -90 -25 -123 -16 -127 7 -2 50 70 110 186
106 205 125 227 239 283 50 24 52 24 101 9 33 -10 87 -15 158 -15 l107 1 0
-276 c0 -217 3 -275 13 -271 31 13 422 181 425 183 2 1 -72 123 -164 272
l-168 271 -60 10 c-247 42 -455 51 -601 25z"/>
<path d="M5645 9129 c-4 -6 -11 -50 -15 -97 -10 -117 -48 -211 -112 -275 -26
-26 -48 -50 -48 -52 0 -3 19 -14 43 -26 23 -12 137 -76 252 -142 371 -213 526
-285 780 -362 174 -53 257 -57 548 -30 111 11 103 30 -15 38 -198 13 -348 63
-348 116 0 17 90 81 165 118 59 30 146 58 286 93 129 33 279 87 279 101 0 16
-17 17 -100 3 -120 -19 -130 -16 -25 10 117 29 185 55 185 72 0 8 -1 14 -2 14
-2 0 -41 -7 -88 -15 -125 -22 -129 -17 -10 15 58 15 117 32 133 38 28 12 37
32 13 32 -11 0 -458 -83 -571 -106 l-30 -6 25 27 c45 49 231 125 307 125 20 0
63 42 63 62 0 4 -12 13 -27 19 -22 8 -42 5 -103 -17 -165 -58 -222 -98 -412
-285 -132 -130 -160 -148 -257 -174 -51 -13 -70 -14 -99 -4 -135 42 -378 233
-628 492 -77 79 -141 155 -154 182 -24 49 -25 50 -35 34z"/>
</g>
</svg>
